<svg xmlns="http://www.w3.org/2000/svg" width="920" height="640" viewBox="0 0 920 640" role="img">
<title>synthetic_easy_following trajectory preview</title>
<desc>Scenario synthetic_easy_following from synthetic. Score 0.650. 2 agents. Tags: low_interaction.</desc>
<defs>
<clipPath id="scenario-plot-clip"><rect x="56" y="84" width="808" height="474" rx="10" /></clipPath>
</defs>
<rect x="0" y="0" width="920" height="640" fill="#f8fafc" />
<text x="56" y="36" fill="#0f172a" font-size="22" font-family="Inter, Arial, sans-serif" font-weight="800">Synthetic Easy Following</text>
<text x="56" y="60" fill="#64748b" font-size="13" font-family="Inter, Arial, sans-serif" font-weight="650">score 0.65 / 2 agents / Low Interaction</text>
<text x="864" y="38" fill="#64748b" font-size="12" font-family="Inter, Arial, sans-serif" text-anchor="end">synthetic</text>
<rect x="56" y="84" width="808" height="474" rx="10" fill="#f9fbfd" stroke="#d8e2ee" stroke-width="1.2" />
<g clip-path="url(#scenario-plot-clip)">
<line x1="120" y1="84" x2="120" y2="558" stroke="#d7e1ee" stroke-width="1" opacity="0.52" />
<line x1="184" y1="84" x2="184" y2="558" stroke="#d7e1ee" stroke-width="1" opacity="0.52" />
<line x1="248" y1="84" x2="248" y2="558" stroke="#d7e1ee" stroke-width="1" opacity="0.52" />
<line x1="312" y1="84" x2="312" y2="558" stroke="#d7e1ee" stroke-width="1" opacity="0.52" />
<line x1="376" y1="84" x2="376" y2="558" stroke="#d7e1ee" stroke-width="1" opacity="0.52" />
<line x1="440" y1="84" x2="440" y2="558" stroke="#d7e1ee" stroke-width="1" opacity="0.52" />
<line x1="504" y1="84" x2="504" y2="558" stroke="#d7e1ee" stroke-width="1" opacity="0.52" />
<line x1="568" y1="84" x2="568" y2="558" stroke="#d7e1ee" stroke-width="1" opacity="0.52" />
<line x1="632" y1="84" x2="632" y2="558" stroke="#d7e1ee" stroke-width="1" opacity="0.52" />
<line x1="696" y1="84" x2="696" y2="558" stroke="#d7e1ee" stroke-width="1" opacity="0.52" />
<line x1="760" y1="84" x2="760" y2="558" stroke="#d7e1ee" stroke-width="1" opacity="0.52" />
<line x1="824" y1="84" x2="824" y2="558" stroke="#d7e1ee" stroke-width="1" opacity="0.52" />
<line x1="56" y1="148" x2="864" y2="148" stroke="#d7e1ee" stroke-width="1" opacity="0.52" />
<line x1="56" y1="212" x2="864" y2="212" stroke="#d7e1ee" stroke-width="1" opacity="0.52" />
<line x1="56" y1="276" x2="864" y2="276" stroke="#d7e1ee" stroke-width="1" opacity="0.52" />
<line x1="56" y1="340" x2="864" y2="340" stroke="#d7e1ee" stroke-width="1" opacity="0.52" />
<line x1="56" y1="404" x2="864" y2="404" stroke="#d7e1ee" stroke-width="1" opacity="0.52" />
<line x1="56" y1="468" x2="864" y2="468" stroke="#d7e1ee" stroke-width="1" opacity="0.52" />
<line x1="56" y1="532" x2="864" y2="532" stroke="#d7e1ee" stroke-width="1" opacity="0.52" />
<rect x="56.00" y="259.79" width="808.00" height="122.42" fill="#e4eaf2" stroke="#c7d3e1" stroke-width="1" opacity="0.92" />
<rect x="92.73" y="209.15" width="122.42" height="223.70" fill="#e4eaf2" stroke="#c7d3e1" stroke-width="1" opacity="0.92" />
<line x1="56.00" y1="321.00" x2="864.00" y2="321.00" stroke="#ffffff" stroke-width="3" stroke-linecap="round" stroke-dasharray="22 18" opacity="0.88" />
<line x1="153.94" y1="209.15" x2="153.94" y2="432.85" stroke="#ffffff" stroke-width="3" stroke-linecap="round" stroke-dasharray="22 18" opacity="0.88" />
<line x1="56.00" y1="259.79" x2="864.00" y2="259.79" stroke="#c7d3e1" stroke-width="1.5" opacity="0.72" />
<line x1="56.00" y1="382.21" x2="864.00" y2="382.21" stroke="#c7d3e1" stroke-width="1.5" opacity="0.72" />
<line x1="92.73" y1="209.15" x2="92.73" y2="432.85" stroke="#c7d3e1" stroke-width="1.5" opacity="0.72" />
<line x1="215.15" y1="209.15" x2="215.15" y2="432.85" stroke="#c7d3e1" stroke-width="1.5" opacity="0.72" />
<line x1="56.00" y1="290.39" x2="864.00" y2="290.39" stroke="#ffffff" stroke-width="3" stroke-linecap="round" stroke-dasharray="22 18" opacity="0.35" />
<line x1="56.00" y1="351.61" x2="864.00" y2="351.61" stroke="#ffffff" stroke-width="3" stroke-linecap="round" stroke-dasharray="22 18" opacity="0.35" />

<g class="track track-vehicle">
<polyline points="153.94,321.00 251.32,321.00 348.71,321.00" fill="none" stroke="#ffffff" stroke-width="11" stroke-linecap="round" stroke-linejoin="round" opacity="0.78" />
<polyline points="153.94,321.00 251.32,321.00 348.71,321.00" fill="none" stroke="#2563eb" stroke-width="6" stroke-linecap="round" stroke-linejoin="round" opacity="1.0" />
<circle cx="153.94" cy="321.00" r="6" fill="#ffffff" stroke="#2563eb" stroke-width="2.5" />
<circle cx="348.71" cy="321.00" r="8" fill="#2563eb" stroke="#ffffff" stroke-width="2.5" />
<rect x="360.71" y="287.00" width="44.20" height="24.00" rx="12" fill="#ffffff" stroke="#d8e2ee" opacity="0.96" />
<rect x="367.71" y="294.00" width="4" height="10" rx="2" fill="#2563eb" />
<text x="377.71" y="303.50" fill="#0f172a" font-size="12" font-family="Inter, Arial, sans-serif" font-weight="750">ego</text>
</g>
<g class="track track-vehicle">
<polyline points="571.29,321.00 668.68,321.00 766.06,321.00" fill="none" stroke="#ffffff" stroke-width="9" stroke-linecap="round" stroke-linejoin="round" opacity="0.78" />
<polyline points="571.29,321.00 668.68,321.00 766.06,321.00" fill="none" stroke="#2563eb" stroke-width="4" stroke-linecap="round" stroke-linejoin="round" opacity="0.92" />
<circle cx="571.29" cy="321.00" r="6" fill="#ffffff" stroke="#2563eb" stroke-width="2.5" />
<circle cx="766.06" cy="321.00" r="8" fill="#2563eb" stroke="#ffffff" stroke-width="2.5" />
<rect x="778.06" y="287.00" width="59.00" height="24.00" rx="12" fill="#ffffff" stroke="#d8e2ee" opacity="0.96" />
<rect x="785.06" y="294.00" width="4" height="10" rx="2" fill="#2563eb" />
<text x="795.06" y="303.50" fill="#0f172a" font-size="12" font-family="Inter, Arial, sans-serif" font-weight="750">veh_1</text>
</g>
<g class="baseline-prediction prediction-vehicle">
<polyline points="668.68,321.00 766.06,321.00" fill="none" stroke="#ffffff" stroke-width="7" stroke-linecap="round" stroke-linejoin="round" stroke-dasharray="10 9" opacity="0.82" />
<polyline points="668.68,321.00 766.06,321.00" fill="none" stroke="#2563eb" stroke-width="3.2" stroke-linecap="round" stroke-linejoin="round" stroke-dasharray="9 8" opacity="0.88" />
</g>
</g>
<rect x="56" y="585" width="120" height="30" rx="15" fill="#ffffff" stroke="#d8e2ee" />
<circle cx="74" cy="600" r="6" fill="#2563eb" />
<text x="88" y="604" fill="#334155" font-size="12" font-family="Inter, Arial, sans-serif" font-weight="700">Vehicle</text>
<circle cx="204" cy="600" r="5" fill="#ffffff" stroke="#0f172a" stroke-width="2" />
<circle cx="270" cy="600" r="6" fill="#0f172a" />
<text x="216" y="604" fill="#64748b" font-size="12" font-family="Inter, Arial, sans-serif" font-weight="700">start</text>
<text x="282" y="604" fill="#64748b" font-size="12" font-family="Inter, Arial, sans-serif" font-weight="700">latest</text>
<line x1="332" y1="600" x2="366" y2="600" stroke="#0f172a" stroke-width="3" stroke-linecap="round" stroke-dasharray="8 7" opacity="0.76" />
<text x="376" y="604" fill="#64748b" font-size="12" font-family="Inter, Arial, sans-serif" font-weight="700">baseline forecast</text>
</svg>
