<svg xmlns="http://www.w3.org/2000/svg" width="920" height="640" viewBox="0 0 920 640" role="img">
<title>synthetic_open_road_baseline trajectory preview</title>
<desc>Scenario synthetic_open_road_baseline from synthetic. Score 0.250. 1 agents. Tags: low_interaction.</desc>
<defs>
<clipPath id="scenario-plot-clip"><rect x="56" y="84" width="808" height="474" rx="10" /></clipPath>
</defs>
<rect x="0" y="0" width="920" height="640" fill="#f8fafc" />
<text x="56" y="36" fill="#0f172a" font-size="22" font-family="Inter, Arial, sans-serif" font-weight="800">Synthetic Open Road Baseline</text>
<text x="56" y="60" fill="#64748b" font-size="13" font-family="Inter, Arial, sans-serif" font-weight="650">score 0.25 / 1 agents / Low Interaction</text>
<text x="864" y="38" fill="#64748b" font-size="12" font-family="Inter, Arial, sans-serif" text-anchor="end">synthetic</text>
<rect x="56" y="84" width="808" height="474" rx="10" fill="#f9fbfd" stroke="#d8e2ee" stroke-width="1.2" />
<g clip-path="url(#scenario-plot-clip)">
<line x1="120" y1="84" x2="120" y2="558" stroke="#d7e1ee" stroke-width="1" opacity="0.52" />
<line x1="184" y1="84" x2="184" y2="558" stroke="#d7e1ee" stroke-width="1" opacity="0.52" />
<line x1="248" y1="84" x2="248" y2="558" stroke="#d7e1ee" stroke-width="1" opacity="0.52" />
<line x1="312" y1="84" x2="312" y2="558" stroke="#d7e1ee" stroke-width="1" opacity="0.52" />
<line x1="376" y1="84" x2="376" y2="558" stroke="#d7e1ee" stroke-width="1" opacity="0.52" />
<line x1="440" y1="84" x2="440" y2="558" stroke="#d7e1ee" stroke-width="1" opacity="0.52" />
<line x1="504" y1="84" x2="504" y2="558" stroke="#d7e1ee" stroke-width="1" opacity="0.52" />
<line x1="568" y1="84" x2="568" y2="558" stroke="#d7e1ee" stroke-width="1" opacity="0.52" />
<line x1="632" y1="84" x2="632" y2="558" stroke="#d7e1ee" stroke-width="1" opacity="0.52" />
<line x1="696" y1="84" x2="696" y2="558" stroke="#d7e1ee" stroke-width="1" opacity="0.52" />
<line x1="760" y1="84" x2="760" y2="558" stroke="#d7e1ee" stroke-width="1" opacity="0.52" />
<line x1="824" y1="84" x2="824" y2="558" stroke="#d7e1ee" stroke-width="1" opacity="0.52" />
<line x1="56" y1="148" x2="864" y2="148" stroke="#d7e1ee" stroke-width="1" opacity="0.52" />
<line x1="56" y1="212" x2="864" y2="212" stroke="#d7e1ee" stroke-width="1" opacity="0.52" />
<line x1="56" y1="276" x2="864" y2="276" stroke="#d7e1ee" stroke-width="1" opacity="0.52" />
<line x1="56" y1="340" x2="864" y2="340" stroke="#d7e1ee" stroke-width="1" opacity="0.52" />
<line x1="56" y1="404" x2="864" y2="404" stroke="#d7e1ee" stroke-width="1" opacity="0.52" />
<line x1="56" y1="468" x2="864" y2="468" stroke="#d7e1ee" stroke-width="1" opacity="0.52" />
<line x1="56" y1="532" x2="864" y2="532" stroke="#d7e1ee" stroke-width="1" opacity="0.52" />
<rect x="56.00" y="210.82" width="808.00" height="220.36" fill="#e4eaf2" stroke="#c7d3e1" stroke-width="1" opacity="0.92" />
<rect x="43.76" y="192.45" width="220.36" height="257.09" fill="#e4eaf2" stroke="#c7d3e1" stroke-width="1" opacity="0.92" />
<line x1="56.00" y1="321.00" x2="864.00" y2="321.00" stroke="#ffffff" stroke-width="3" stroke-linecap="round" stroke-dasharray="22 18" opacity="0.88" />
<line x1="153.94" y1="192.45" x2="153.94" y2="449.55" stroke="#ffffff" stroke-width="3" stroke-linecap="round" stroke-dasharray="22 18" opacity="0.88" />
<line x1="56.00" y1="210.82" x2="864.00" y2="210.82" stroke="#c7d3e1" stroke-width="1.5" opacity="0.72" />
<line x1="56.00" y1="431.18" x2="864.00" y2="431.18" stroke="#c7d3e1" stroke-width="1.5" opacity="0.72" />
<line x1="43.76" y1="192.45" x2="43.76" y2="449.55" stroke="#c7d3e1" stroke-width="1.5" opacity="0.72" />
<line x1="264.12" y1="192.45" x2="264.12" y2="449.55" stroke="#c7d3e1" stroke-width="1.5" opacity="0.72" />
<line x1="56.00" y1="265.91" x2="864.00" y2="265.91" stroke="#ffffff" stroke-width="3" stroke-linecap="round" stroke-dasharray="22 18" opacity="0.35" />
<line x1="56.00" y1="376.09" x2="864.00" y2="376.09" stroke="#ffffff" stroke-width="3" stroke-linecap="round" stroke-dasharray="22 18" opacity="0.35" />

<g class="track track-vehicle">
<polyline points="153.94,321.00 460.00,321.00 766.06,321.00" fill="none" stroke="#ffffff" stroke-width="11" stroke-linecap="round" stroke-linejoin="round" opacity="0.78" />
<polyline points="153.94,321.00 460.00,321.00 766.06,321.00" fill="none" stroke="#2563eb" stroke-width="6" stroke-linecap="round" stroke-linejoin="round" opacity="1.0" />
<circle cx="153.94" cy="321.00" r="6" fill="#ffffff" stroke="#2563eb" stroke-width="2.5" />
<circle cx="766.06" cy="321.00" r="8" fill="#2563eb" stroke="#ffffff" stroke-width="2.5" />
<rect x="778.06" y="287.00" width="44.20" height="24.00" rx="12" fill="#ffffff" stroke="#d8e2ee" opacity="0.96" />
<rect x="785.06" y="294.00" width="4" height="10" rx="2" fill="#2563eb" />
<text x="795.06" y="303.50" fill="#0f172a" font-size="12" font-family="Inter, Arial, sans-serif" font-weight="750">ego</text>
</g>
</g>
<rect x="56" y="585" width="120" height="30" rx="15" fill="#ffffff" stroke="#d8e2ee" />
<circle cx="74" cy="600" r="6" fill="#2563eb" />
<text x="88" y="604" fill="#334155" font-size="12" font-family="Inter, Arial, sans-serif" font-weight="700">Vehicle</text>
<circle cx="204" cy="600" r="5" fill="#ffffff" stroke="#0f172a" stroke-width="2" />
<circle cx="270" cy="600" r="6" fill="#0f172a" />
<text x="216" y="604" fill="#64748b" font-size="12" font-family="Inter, Arial, sans-serif" font-weight="700">start</text>
<text x="282" y="604" fill="#64748b" font-size="12" font-family="Inter, Arial, sans-serif" font-weight="700">latest</text>
</svg>
