<svg xmlns="http://www.w3.org/2000/svg" width="920" height="640" viewBox="0 0 920 640" role="img">
<title>synthetic_curved_lane_prediction trajectory preview</title>
<desc>Scenario synthetic_curved_lane_prediction from synthetic. Score 6.902. 2 agents. Tags: map_context, tracks_to_predict.</desc>
<defs>
<clipPath id="scenario-plot-clip"><rect x="56" y="84" width="808" height="474" rx="10" /></clipPath>
</defs>
<rect x="0" y="0" width="920" height="640" fill="#f8fafc" />
<text x="56" y="36" fill="#0f172a" font-size="22" font-family="Inter, Arial, sans-serif" font-weight="800">Synthetic Curved Lane Prediction</text>
<text x="56" y="60" fill="#64748b" font-size="13" font-family="Inter, Arial, sans-serif" font-weight="650">score 6.90 / 2 agents / Map Context / Tracks To Predict</text>
<text x="864" y="38" fill="#64748b" font-size="12" font-family="Inter, Arial, sans-serif" text-anchor="end">synthetic</text>
<rect x="56" y="84" width="808" height="474" rx="10" fill="#f9fbfd" stroke="#d8e2ee" stroke-width="1.2" />
<g clip-path="url(#scenario-plot-clip)">
<line x1="120" y1="84" x2="120" y2="558" stroke="#d7e1ee" stroke-width="1" opacity="0.52" />
<line x1="184" y1="84" x2="184" y2="558" stroke="#d7e1ee" stroke-width="1" opacity="0.52" />
<line x1="248" y1="84" x2="248" y2="558" stroke="#d7e1ee" stroke-width="1" opacity="0.52" />
<line x1="312" y1="84" x2="312" y2="558" stroke="#d7e1ee" stroke-width="1" opacity="0.52" />
<line x1="376" y1="84" x2="376" y2="558" stroke="#d7e1ee" stroke-width="1" opacity="0.52" />
<line x1="440" y1="84" x2="440" y2="558" stroke="#d7e1ee" stroke-width="1" opacity="0.52" />
<line x1="504" y1="84" x2="504" y2="558" stroke="#d7e1ee" stroke-width="1" opacity="0.52" />
<line x1="568" y1="84" x2="568" y2="558" stroke="#d7e1ee" stroke-width="1" opacity="0.52" />
<line x1="632" y1="84" x2="632" y2="558" stroke="#d7e1ee" stroke-width="1" opacity="0.52" />
<line x1="696" y1="84" x2="696" y2="558" stroke="#d7e1ee" stroke-width="1" opacity="0.52" />
<line x1="760" y1="84" x2="760" y2="558" stroke="#d7e1ee" stroke-width="1" opacity="0.52" />
<line x1="824" y1="84" x2="824" y2="558" stroke="#d7e1ee" stroke-width="1" opacity="0.52" />
<line x1="56" y1="148" x2="864" y2="148" stroke="#d7e1ee" stroke-width="1" opacity="0.52" />
<line x1="56" y1="212" x2="864" y2="212" stroke="#d7e1ee" stroke-width="1" opacity="0.52" />
<line x1="56" y1="276" x2="864" y2="276" stroke="#d7e1ee" stroke-width="1" opacity="0.52" />
<line x1="56" y1="340" x2="864" y2="340" stroke="#d7e1ee" stroke-width="1" opacity="0.52" />
<line x1="56" y1="404" x2="864" y2="404" stroke="#d7e1ee" stroke-width="1" opacity="0.52" />
<line x1="56" y1="468" x2="864" y2="468" stroke="#d7e1ee" stroke-width="1" opacity="0.52" />
<line x1="56" y1="532" x2="864" y2="532" stroke="#d7e1ee" stroke-width="1" opacity="0.52" />
<polyline class="map-feature map-lane" points="402.20,407.71 517.80,407.71 604.51,364.35 662.32,263.20 676.77,176.49" fill="none" stroke="#94a3b8" stroke-width="1.4" stroke-linecap="round" stroke-linejoin="round" stroke-dasharray="10 10" opacity="0.64" />
<circle cx="503.35" cy="414.93" r="30.52" fill="#f59e0b" opacity="0.13" />
<circle cx="503.35" cy="414.93" r="30.52" fill="none" stroke="#f59e0b" stroke-width="2" opacity="0.38" />
<g class="track track-vehicle">
<polyline points="170.98,465.51 286.59,465.51 402.20,465.51 517.80,465.51" fill="none" stroke="#ffffff" stroke-width="11" stroke-linecap="round" stroke-linejoin="round" opacity="0.78" />
<polyline points="170.98,465.51 286.59,465.51 402.20,465.51 517.80,465.51" fill="none" stroke="#2563eb" stroke-width="6" stroke-linecap="round" stroke-linejoin="round" opacity="1.0" />
<circle cx="170.98" cy="465.51" r="6" fill="#ffffff" stroke="#2563eb" stroke-width="2.5" />
<circle cx="517.80" cy="465.51" r="8" fill="#2563eb" stroke="#ffffff" stroke-width="2.5" />
<rect x="529.80" y="431.51" width="44.20" height="24.00" rx="12" fill="#ffffff" stroke="#d8e2ee" opacity="0.96" />
<rect x="536.80" y="438.51" width="4" height="10" rx="2" fill="#2563eb" />
<text x="546.80" y="448.01" fill="#0f172a" font-size="12" font-family="Inter, Arial, sans-serif" font-weight="750">ego</text>
</g>
<g class="track track-vehicle">
<polyline points="402.20,407.71 517.80,407.71 604.51,364.35 662.32,263.20" fill="none" stroke="#ffffff" stroke-width="9" stroke-linecap="round" stroke-linejoin="round" opacity="0.78" />
<polyline points="402.20,407.71 517.80,407.71 604.51,364.35 662.32,263.20" fill="none" stroke="#2563eb" stroke-width="4" stroke-linecap="round" stroke-linejoin="round" opacity="0.92" />
<circle cx="402.20" cy="407.71" r="6" fill="#ffffff" stroke="#2563eb" stroke-width="2.5" />
<circle cx="662.32" cy="263.20" r="8" fill="#2563eb" stroke="#ffffff" stroke-width="2.5" />
<rect x="674.32" y="229.20" width="103.40" height="24.00" rx="12" fill="#ffffff" stroke="#d8e2ee" opacity="0.96" />
<rect x="681.32" y="236.20" width="4" height="10" rx="2" fill="#2563eb" />
<text x="691.32" y="245.70" fill="#0f172a" font-size="12" font-family="Inter, Arial, sans-serif" font-weight="750">curving_veh</text>
</g>
<g class="baseline-prediction prediction-vehicle">
<polyline points="517.80,407.71 633.41,407.71 749.02,407.71" fill="none" stroke="#ffffff" stroke-width="7" stroke-linecap="round" stroke-linejoin="round" stroke-dasharray="10 9" opacity="0.82" />
<polyline points="517.80,407.71 633.41,407.71 749.02,407.71" fill="none" stroke="#2563eb" stroke-width="3.2" stroke-linecap="round" stroke-linejoin="round" stroke-dasharray="9 8" opacity="0.88" />
</g>
</g>
<rect x="56" y="585" width="120" height="30" rx="15" fill="#ffffff" stroke="#d8e2ee" />
<circle cx="74" cy="600" r="6" fill="#2563eb" />
<text x="88" y="604" fill="#334155" font-size="12" font-family="Inter, Arial, sans-serif" font-weight="700">Vehicle</text>
<circle cx="204" cy="600" r="5" fill="#ffffff" stroke="#0f172a" stroke-width="2" />
<circle cx="270" cy="600" r="6" fill="#0f172a" />
<text x="216" y="604" fill="#64748b" font-size="12" font-family="Inter, Arial, sans-serif" font-weight="700">start</text>
<text x="282" y="604" fill="#64748b" font-size="12" font-family="Inter, Arial, sans-serif" font-weight="700">latest</text>
<line x1="332" y1="600" x2="366" y2="600" stroke="#0f172a" stroke-width="3" stroke-linecap="round" stroke-dasharray="8 7" opacity="0.76" />
<text x="376" y="604" fill="#64748b" font-size="12" font-family="Inter, Arial, sans-serif" font-weight="700">baseline forecast</text>
</svg>
