<svg xmlns="http://www.w3.org/2000/svg" width="920" height="640" viewBox="0 0 920 640" role="img">
<title>synthetic_pedestrian_crossing trajectory preview</title>
<desc>Scenario synthetic_pedestrian_crossing from synthetic. Score 26.359. 2 agents. Tags: vulnerable_road_user, pedestrian_crossing, close_interaction.</desc>
<defs>
<clipPath id="scenario-plot-clip"><rect x="56" y="84" width="808" height="474" rx="10" /></clipPath>
</defs>
<rect x="0" y="0" width="920" height="640" fill="#f8fafc" />
<text x="56" y="36" fill="#0f172a" font-size="22" font-family="Inter, Arial, sans-serif" font-weight="800">Synthetic Pedestrian Crossing</text>
<text x="56" y="60" fill="#64748b" font-size="13" font-family="Inter, Arial, sans-serif" font-weight="650">score 26.36 / 2 agents / Vulnerable Road User / Pedestrian Crossing / Close Interaction</text>
<text x="864" y="38" fill="#64748b" font-size="12" font-family="Inter, Arial, sans-serif" text-anchor="end">synthetic</text>
<rect x="56" y="84" width="808" height="474" rx="10" fill="#f9fbfd" stroke="#d8e2ee" stroke-width="1.2" />
<g clip-path="url(#scenario-plot-clip)">
<line x1="120" y1="84" x2="120" y2="558" stroke="#d7e1ee" stroke-width="1" opacity="0.52" />
<line x1="184" y1="84" x2="184" y2="558" stroke="#d7e1ee" stroke-width="1" opacity="0.52" />
<line x1="248" y1="84" x2="248" y2="558" stroke="#d7e1ee" stroke-width="1" opacity="0.52" />
<line x1="312" y1="84" x2="312" y2="558" stroke="#d7e1ee" stroke-width="1" opacity="0.52" />
<line x1="376" y1="84" x2="376" y2="558" stroke="#d7e1ee" stroke-width="1" opacity="0.52" />
<line x1="440" y1="84" x2="440" y2="558" stroke="#d7e1ee" stroke-width="1" opacity="0.52" />
<line x1="504" y1="84" x2="504" y2="558" stroke="#d7e1ee" stroke-width="1" opacity="0.52" />
<line x1="568" y1="84" x2="568" y2="558" stroke="#d7e1ee" stroke-width="1" opacity="0.52" />
<line x1="632" y1="84" x2="632" y2="558" stroke="#d7e1ee" stroke-width="1" opacity="0.52" />
<line x1="696" y1="84" x2="696" y2="558" stroke="#d7e1ee" stroke-width="1" opacity="0.52" />
<line x1="760" y1="84" x2="760" y2="558" stroke="#d7e1ee" stroke-width="1" opacity="0.52" />
<line x1="824" y1="84" x2="824" y2="558" stroke="#d7e1ee" stroke-width="1" opacity="0.52" />
<line x1="56" y1="148" x2="864" y2="148" stroke="#d7e1ee" stroke-width="1" opacity="0.52" />
<line x1="56" y1="212" x2="864" y2="212" stroke="#d7e1ee" stroke-width="1" opacity="0.52" />
<line x1="56" y1="276" x2="864" y2="276" stroke="#d7e1ee" stroke-width="1" opacity="0.52" />
<line x1="56" y1="340" x2="864" y2="340" stroke="#d7e1ee" stroke-width="1" opacity="0.52" />
<line x1="56" y1="404" x2="864" y2="404" stroke="#d7e1ee" stroke-width="1" opacity="0.52" />
<line x1="56" y1="468" x2="864" y2="468" stroke="#d7e1ee" stroke-width="1" opacity="0.52" />
<line x1="56" y1="532" x2="864" y2="532" stroke="#d7e1ee" stroke-width="1" opacity="0.52" />
<rect x="80.80" y="55.56" width="758.40" height="341.28" fill="#e4eaf2" stroke="#c7d3e1" stroke-width="1" opacity="0.92" />
<rect x="52.36" y="84.00" width="341.28" height="474.00" fill="#e4eaf2" stroke="#c7d3e1" stroke-width="1" opacity="0.92" />
<line x1="80.80" y1="226.20" x2="839.20" y2="226.20" stroke="#ffffff" stroke-width="3" stroke-linecap="round" stroke-dasharray="22 18" opacity="0.88" />
<line x1="223.00" y1="84.00" x2="223.00" y2="558.00" stroke="#ffffff" stroke-width="3" stroke-linecap="round" stroke-dasharray="22 18" opacity="0.88" />
<line x1="80.80" y1="55.56" x2="839.20" y2="55.56" stroke="#c7d3e1" stroke-width="1.5" opacity="0.72" />
<line x1="80.80" y1="396.84" x2="839.20" y2="396.84" stroke="#c7d3e1" stroke-width="1.5" opacity="0.72" />
<line x1="52.36" y1="84.00" x2="52.36" y2="558.00" stroke="#c7d3e1" stroke-width="1.5" opacity="0.72" />
<line x1="393.64" y1="84.00" x2="393.64" y2="558.00" stroke="#c7d3e1" stroke-width="1.5" opacity="0.72" />
<line x1="80.80" y1="140.88" x2="839.20" y2="140.88" stroke="#ffffff" stroke-width="3" stroke-linecap="round" stroke-dasharray="22 18" opacity="0.35" />
<line x1="80.80" y1="311.52" x2="839.20" y2="311.52" stroke="#ffffff" stroke-width="3" stroke-linecap="round" stroke-dasharray="22 18" opacity="0.35" />
<rect x="411.65" y="72.15" width="30.34" height="308.10" fill="#ffffff" stroke="#ffffff" stroke-width="1" opacity="0.78" />
<rect x="446.73" y="72.15" width="30.34" height="308.10" fill="#ffffff" stroke="#ffffff" stroke-width="1" opacity="0.78" />
<rect x="481.80" y="72.15" width="30.34" height="308.10" fill="#ffffff" stroke="#ffffff" stroke-width="1" opacity="0.78" />
<rect x="516.88" y="72.15" width="30.34" height="308.10" fill="#ffffff" stroke="#ffffff" stroke-width="1" opacity="0.78" />
<rect x="551.96" y="72.15" width="30.34" height="308.10" fill="#ffffff" stroke="#ffffff" stroke-width="1" opacity="0.78" />
<rect x="587.03" y="72.15" width="30.34" height="308.10" fill="#ffffff" stroke="#ffffff" stroke-width="1" opacity="0.78" />
<rect x="622.11" y="72.15" width="30.34" height="308.10" fill="#ffffff" stroke="#ffffff" stroke-width="1" opacity="0.78" />
<circle cx="649.60" cy="249.90" r="47.29" fill="#f59e0b" opacity="0.13" />
<circle cx="649.60" cy="249.90" r="47.29" fill="none" stroke="#f59e0b" stroke-width="2" opacity="0.38" />
<g class="track track-vehicle">
<polyline points="223.00,226.20 460.00,226.20 697.00,226.20" fill="none" stroke="#ffffff" stroke-width="11" stroke-linecap="round" stroke-linejoin="round" opacity="0.78" />
<polyline points="223.00,226.20 460.00,226.20 697.00,226.20" fill="none" stroke="#2563eb" stroke-width="6" stroke-linecap="round" stroke-linejoin="round" opacity="1.0" />
<circle cx="223.00" cy="226.20" r="6" fill="#ffffff" stroke="#2563eb" stroke-width="2.5" />
<circle cx="697.00" cy="226.20" r="8" fill="#2563eb" stroke="#ffffff" stroke-width="2.5" />
<rect x="709.00" y="192.20" width="44.20" height="24.00" rx="12" fill="#ffffff" stroke="#d8e2ee" opacity="0.96" />
<rect x="716.00" y="199.20" width="4" height="10" rx="2" fill="#2563eb" />
<text x="726.00" y="208.70" fill="#0f172a" font-size="12" font-family="Inter, Arial, sans-serif" font-weight="750">ego</text>
</g>
<g class="track track-pedestrian">
<polyline points="602.20,415.80 602.20,344.70 602.20,273.60" fill="none" stroke="#ffffff" stroke-width="9" stroke-linecap="round" stroke-linejoin="round" opacity="0.78" />
<polyline points="602.20,415.80 602.20,344.70 602.20,273.60" fill="none" stroke="#dc2626" stroke-width="4" stroke-linecap="round" stroke-linejoin="round" opacity="0.92" />
<circle cx="602.20" cy="415.80" r="6" fill="#ffffff" stroke="#dc2626" stroke-width="2.5" />
<circle cx="602.20" cy="273.60" r="8" fill="#dc2626" stroke="#ffffff" stroke-width="2.5" />
<rect x="614.20" y="239.60" width="59.00" height="24.00" rx="12" fill="#ffffff" stroke="#d8e2ee" opacity="0.96" />
<rect x="621.20" y="246.60" width="4" height="10" rx="2" fill="#dc2626" />
<text x="631.20" y="256.10" fill="#0f172a" font-size="12" font-family="Inter, Arial, sans-serif" font-weight="750">ped_1</text>
</g>
</g>
<rect x="56" y="585" width="120" height="30" rx="15" fill="#ffffff" stroke="#d8e2ee" />
<circle cx="74" cy="600" r="6" fill="#2563eb" />
<text x="88" y="604" fill="#334155" font-size="12" font-family="Inter, Arial, sans-serif" font-weight="700">Vehicle</text>
<rect x="186" y="585" width="132" height="30" rx="15" fill="#ffffff" stroke="#d8e2ee" />
<circle cx="204" cy="600" r="6" fill="#dc2626" />
<text x="218" y="604" fill="#334155" font-size="12" font-family="Inter, Arial, sans-serif" font-weight="700">Pedestrian</text>
<circle cx="346" cy="600" r="5" fill="#ffffff" stroke="#0f172a" stroke-width="2" />
<circle cx="412" cy="600" r="6" fill="#0f172a" />
<text x="358" y="604" fill="#64748b" font-size="12" font-family="Inter, Arial, sans-serif" font-weight="700">start</text>
<text x="424" y="604" fill="#64748b" font-size="12" font-family="Inter, Arial, sans-serif" font-weight="700">latest</text>
</svg>
