<svg xmlns="http://www.w3.org/2000/svg" width="920" height="640" viewBox="0 0 920 640" role="img">
<title>waymo_like_cyclist trajectory preview</title>
<desc>Scenario waymo_like_cyclist from waymo_motion_normalized_example. Score 23.421. 2 agents. Tags: vulnerable_road_user, cyclist_interaction, close_interaction.</desc>
<defs>
<clipPath id="scenario-plot-clip"><rect x="56" y="84" width="808" height="474" rx="10" /></clipPath>
</defs>
<rect x="0" y="0" width="920" height="640" fill="#f8fafc" />
<text x="56" y="36" fill="#0f172a" font-size="22" font-family="Inter, Arial, sans-serif" font-weight="800">Waymo Like Cyclist</text>
<text x="56" y="60" fill="#64748b" font-size="13" font-family="Inter, Arial, sans-serif" font-weight="650">score 23.42 / 2 agents / Vulnerable Road User / Cyclist Interaction / Close Interaction</text>
<text x="864" y="38" fill="#64748b" font-size="12" font-family="Inter, Arial, sans-serif" text-anchor="end">waymo_motion_normalized_example</text>
<rect x="56" y="84" width="808" height="474" rx="10" fill="#f9fbfd" stroke="#d8e2ee" stroke-width="1.2" />
<g clip-path="url(#scenario-plot-clip)">
<line x1="120" y1="84" x2="120" y2="558" stroke="#d7e1ee" stroke-width="1" opacity="0.52" />
<line x1="184" y1="84" x2="184" y2="558" stroke="#d7e1ee" stroke-width="1" opacity="0.52" />
<line x1="248" y1="84" x2="248" y2="558" stroke="#d7e1ee" stroke-width="1" opacity="0.52" />
<line x1="312" y1="84" x2="312" y2="558" stroke="#d7e1ee" stroke-width="1" opacity="0.52" />
<line x1="376" y1="84" x2="376" y2="558" stroke="#d7e1ee" stroke-width="1" opacity="0.52" />
<line x1="440" y1="84" x2="440" y2="558" stroke="#d7e1ee" stroke-width="1" opacity="0.52" />
<line x1="504" y1="84" x2="504" y2="558" stroke="#d7e1ee" stroke-width="1" opacity="0.52" />
<line x1="568" y1="84" x2="568" y2="558" stroke="#d7e1ee" stroke-width="1" opacity="0.52" />
<line x1="632" y1="84" x2="632" y2="558" stroke="#d7e1ee" stroke-width="1" opacity="0.52" />
<line x1="696" y1="84" x2="696" y2="558" stroke="#d7e1ee" stroke-width="1" opacity="0.52" />
<line x1="760" y1="84" x2="760" y2="558" stroke="#d7e1ee" stroke-width="1" opacity="0.52" />
<line x1="824" y1="84" x2="824" y2="558" stroke="#d7e1ee" stroke-width="1" opacity="0.52" />
<line x1="56" y1="148" x2="864" y2="148" stroke="#d7e1ee" stroke-width="1" opacity="0.52" />
<line x1="56" y1="212" x2="864" y2="212" stroke="#d7e1ee" stroke-width="1" opacity="0.52" />
<line x1="56" y1="276" x2="864" y2="276" stroke="#d7e1ee" stroke-width="1" opacity="0.52" />
<line x1="56" y1="340" x2="864" y2="340" stroke="#d7e1ee" stroke-width="1" opacity="0.52" />
<line x1="56" y1="404" x2="864" y2="404" stroke="#d7e1ee" stroke-width="1" opacity="0.52" />
<line x1="56" y1="468" x2="864" y2="468" stroke="#d7e1ee" stroke-width="1" opacity="0.52" />
<line x1="56" y1="532" x2="864" y2="532" stroke="#d7e1ee" stroke-width="1" opacity="0.52" />
<rect x="56.00" y="167.76" width="808.00" height="401.21" fill="#e4eaf2" stroke="#c7d3e1" stroke-width="1" opacity="0.92" />
<rect x="22.57" y="106.46" width="401.21" height="429.08" fill="#e4eaf2" stroke="#c7d3e1" stroke-width="1" opacity="0.92" />
<line x1="56.00" y1="368.37" x2="864.00" y2="368.37" stroke="#ffffff" stroke-width="3" stroke-linecap="round" stroke-dasharray="22 18" opacity="0.88" />
<line x1="223.17" y1="106.46" x2="223.17" y2="535.54" stroke="#ffffff" stroke-width="3" stroke-linecap="round" stroke-dasharray="22 18" opacity="0.88" />
<line x1="56.00" y1="167.76" x2="864.00" y2="167.76" stroke="#c7d3e1" stroke-width="1.5" opacity="0.72" />
<line x1="56.00" y1="568.97" x2="864.00" y2="568.97" stroke="#c7d3e1" stroke-width="1.5" opacity="0.72" />
<line x1="22.57" y1="106.46" x2="22.57" y2="535.54" stroke="#c7d3e1" stroke-width="1.5" opacity="0.72" />
<line x1="423.78" y1="106.46" x2="423.78" y2="535.54" stroke="#c7d3e1" stroke-width="1.5" opacity="0.72" />
<line x1="56.00" y1="268.06" x2="864.00" y2="268.06" stroke="#ffffff" stroke-width="3" stroke-linecap="round" stroke-dasharray="22 18" opacity="0.35" />
<line x1="56.00" y1="468.67" x2="864.00" y2="468.67" stroke="#ffffff" stroke-width="3" stroke-linecap="round" stroke-dasharray="22 18" opacity="0.35" />
<rect x="444.95" y="187.26" width="35.66" height="362.21" fill="#ffffff" stroke="#ffffff" stroke-width="1" opacity="0.78" />
<rect x="486.19" y="187.26" width="35.66" height="362.21" fill="#ffffff" stroke="#ffffff" stroke-width="1" opacity="0.78" />
<rect x="527.43" y="187.26" width="35.66" height="362.21" fill="#ffffff" stroke="#ffffff" stroke-width="1" opacity="0.78" />
<rect x="568.66" y="187.26" width="35.66" height="362.21" fill="#ffffff" stroke="#ffffff" stroke-width="1" opacity="0.78" />
<rect x="609.90" y="187.26" width="35.66" height="362.21" fill="#ffffff" stroke="#ffffff" stroke-width="1" opacity="0.78" />
<rect x="651.13" y="187.26" width="35.66" height="362.21" fill="#ffffff" stroke="#ffffff" stroke-width="1" opacity="0.78" />
<rect x="692.37" y="187.26" width="35.66" height="362.21" fill="#ffffff" stroke="#ffffff" stroke-width="1" opacity="0.78" />
<circle cx="627.17" cy="326.57" r="45.25" fill="#f59e0b" opacity="0.13" />
<circle cx="627.17" cy="326.57" r="45.25" fill="none" stroke="#f59e0b" stroke-width="2" opacity="0.38" />
<g class="track track-cyclist">
<polyline points="446.07,273.63 696.83,284.78" fill="none" stroke="#ffffff" stroke-width="9" stroke-linecap="round" stroke-linejoin="round" opacity="0.78" />
<polyline points="446.07,273.63 696.83,284.78" fill="none" stroke="#16a34a" stroke-width="4" stroke-linecap="round" stroke-linejoin="round" opacity="0.92" />
<circle cx="446.07" cy="273.63" r="6" fill="#ffffff" stroke="#16a34a" stroke-width="2.5" />
<circle cx="696.83" cy="284.78" r="8" fill="#16a34a" stroke="#ffffff" stroke-width="2.5" />
<rect x="708.83" y="250.78" width="88.60" height="24.00" rx="12" fill="#ffffff" stroke="#d8e2ee" opacity="0.96" />
<rect x="715.83" y="257.78" width="4" height="10" rx="2" fill="#16a34a" />
<text x="725.83" y="267.28" fill="#0f172a" font-size="12" font-family="Inter, Arial, sans-serif" font-weight="750">cyclist_1</text>
</g>
<g class="track track-vehicle">
<polyline points="223.17,368.37 557.52,368.37" fill="none" stroke="#ffffff" stroke-width="11" stroke-linecap="round" stroke-linejoin="round" opacity="0.78" />
<polyline points="223.17,368.37 557.52,368.37" fill="none" stroke="#2563eb" stroke-width="6" stroke-linecap="round" stroke-linejoin="round" opacity="1.0" />
<circle cx="223.17" cy="368.37" r="6" fill="#ffffff" stroke="#2563eb" stroke-width="2.5" />
<circle cx="557.52" cy="368.37" r="8" fill="#2563eb" stroke="#ffffff" stroke-width="2.5" />
<rect x="569.52" y="334.37" width="44.20" height="24.00" rx="12" fill="#ffffff" stroke="#d8e2ee" opacity="0.96" />
<rect x="576.52" y="341.37" width="4" height="10" rx="2" fill="#2563eb" />
<text x="586.52" y="350.87" fill="#0f172a" font-size="12" font-family="Inter, Arial, sans-serif" font-weight="750">ego</text>
</g>
<g class="baseline-prediction baseline-constant_velocity prediction-cyclist">
<polyline points="446.07,273.63 696.83,273.63" fill="none" stroke="#ffffff" stroke-width="7" stroke-linecap="round" stroke-linejoin="round" stroke-dasharray="10 9" opacity="0.82" />
<polyline points="446.07,273.63 696.83,273.63" fill="none" stroke="#16a34a" stroke-width="3.2" stroke-linecap="round" stroke-linejoin="round" stroke-dasharray="9 8" opacity="0.88" />
</g>
</g>
<rect x="56" y="585" width="120" height="30" rx="15" fill="#ffffff" stroke="#d8e2ee" />
<circle cx="74" cy="600" r="6" fill="#2563eb" />
<text x="88" y="604" fill="#334155" font-size="12" font-family="Inter, Arial, sans-serif" font-weight="700">Vehicle</text>
<rect x="186" y="585" width="120" height="30" rx="15" fill="#ffffff" stroke="#d8e2ee" />
<circle cx="204" cy="600" r="6" fill="#16a34a" />
<text x="218" y="604" fill="#334155" font-size="12" font-family="Inter, Arial, sans-serif" font-weight="700">Cyclist</text>
<circle cx="334" cy="600" r="5" fill="#ffffff" stroke="#0f172a" stroke-width="2" />
<circle cx="400" cy="600" r="6" fill="#0f172a" />
<text x="346" y="604" fill="#64748b" font-size="12" font-family="Inter, Arial, sans-serif" font-weight="700">start</text>
<text x="412" y="604" fill="#64748b" font-size="12" font-family="Inter, Arial, sans-serif" font-weight="700">latest</text>
<line x1="462" y1="600" x2="496" y2="600" stroke="#0f172a" stroke-width="3" stroke-linecap="round" stroke-dasharray="8 7" opacity="0.76" />
<text x="506" y="604" fill="#64748b" font-size="12" font-family="Inter, Arial, sans-serif" font-weight="700">baseline forecast</text>
</svg>
