<svg xmlns="http://www.w3.org/2000/svg" width="920" height="640" viewBox="0 0 920 640" role="img">
<title>waymo_like_unprotected_turn trajectory preview</title>
<desc>Scenario waymo_like_unprotected_turn from waymo_motion_normalized_example. Score 29.151. 3 agents. Tags: vulnerable_road_user, pedestrian_crossing, unprotected_turn.</desc>
<defs>
<clipPath id="scenario-plot-clip"><rect x="56" y="84" width="808" height="474" rx="10" /></clipPath>
</defs>
<rect x="0" y="0" width="920" height="640" fill="#f8fafc" />
<text x="56" y="36" fill="#0f172a" font-size="22" font-family="Inter, Arial, sans-serif" font-weight="800">Waymo Like Unprotected Turn</text>
<text x="56" y="60" fill="#64748b" font-size="13" font-family="Inter, Arial, sans-serif" font-weight="650">score 29.15 / 3 agents / Vulnerable Road User / Pedestrian Crossing / Unprotected Turn</text>
<text x="864" y="38" fill="#64748b" font-size="12" font-family="Inter, Arial, sans-serif" text-anchor="end">waymo_motion_normalized_example</text>
<rect x="56" y="84" width="808" height="474" rx="10" fill="#f9fbfd" stroke="#d8e2ee" stroke-width="1.2" />
<g clip-path="url(#scenario-plot-clip)">
<line x1="120" y1="84" x2="120" y2="558" stroke="#d7e1ee" stroke-width="1" opacity="0.52" />
<line x1="184" y1="84" x2="184" y2="558" stroke="#d7e1ee" stroke-width="1" opacity="0.52" />
<line x1="248" y1="84" x2="248" y2="558" stroke="#d7e1ee" stroke-width="1" opacity="0.52" />
<line x1="312" y1="84" x2="312" y2="558" stroke="#d7e1ee" stroke-width="1" opacity="0.52" />
<line x1="376" y1="84" x2="376" y2="558" stroke="#d7e1ee" stroke-width="1" opacity="0.52" />
<line x1="440" y1="84" x2="440" y2="558" stroke="#d7e1ee" stroke-width="1" opacity="0.52" />
<line x1="504" y1="84" x2="504" y2="558" stroke="#d7e1ee" stroke-width="1" opacity="0.52" />
<line x1="568" y1="84" x2="568" y2="558" stroke="#d7e1ee" stroke-width="1" opacity="0.52" />
<line x1="632" y1="84" x2="632" y2="558" stroke="#d7e1ee" stroke-width="1" opacity="0.52" />
<line x1="696" y1="84" x2="696" y2="558" stroke="#d7e1ee" stroke-width="1" opacity="0.52" />
<line x1="760" y1="84" x2="760" y2="558" stroke="#d7e1ee" stroke-width="1" opacity="0.52" />
<line x1="824" y1="84" x2="824" y2="558" stroke="#d7e1ee" stroke-width="1" opacity="0.52" />
<line x1="56" y1="148" x2="864" y2="148" stroke="#d7e1ee" stroke-width="1" opacity="0.52" />
<line x1="56" y1="212" x2="864" y2="212" stroke="#d7e1ee" stroke-width="1" opacity="0.52" />
<line x1="56" y1="276" x2="864" y2="276" stroke="#d7e1ee" stroke-width="1" opacity="0.52" />
<line x1="56" y1="340" x2="864" y2="340" stroke="#d7e1ee" stroke-width="1" opacity="0.52" />
<line x1="56" y1="404" x2="864" y2="404" stroke="#d7e1ee" stroke-width="1" opacity="0.52" />
<line x1="56" y1="468" x2="864" y2="468" stroke="#d7e1ee" stroke-width="1" opacity="0.52" />
<line x1="56" y1="532" x2="864" y2="532" stroke="#d7e1ee" stroke-width="1" opacity="0.52" />
<rect x="56.00" y="114.96" width="808.00" height="290.88" fill="#e4eaf2" stroke="#c7d3e1" stroke-width="1" opacity="0.92" />
<rect x="193.36" y="98.80" width="290.88" height="444.40" fill="#e4eaf2" stroke="#c7d3e1" stroke-width="1" opacity="0.92" />
<line x1="56.00" y1="260.40" x2="864.00" y2="260.40" stroke="#ffffff" stroke-width="3" stroke-linecap="round" stroke-dasharray="22 18" opacity="0.88" />
<line x1="338.80" y1="98.80" x2="338.80" y2="543.20" stroke="#ffffff" stroke-width="3" stroke-linecap="round" stroke-dasharray="22 18" opacity="0.88" />
<line x1="56.00" y1="114.96" x2="864.00" y2="114.96" stroke="#c7d3e1" stroke-width="1.5" opacity="0.72" />
<line x1="56.00" y1="405.84" x2="864.00" y2="405.84" stroke="#c7d3e1" stroke-width="1.5" opacity="0.72" />
<line x1="193.36" y1="98.80" x2="193.36" y2="543.20" stroke="#c7d3e1" stroke-width="1.5" opacity="0.72" />
<line x1="484.24" y1="98.80" x2="484.24" y2="543.20" stroke="#c7d3e1" stroke-width="1.5" opacity="0.72" />
<line x1="56.00" y1="187.68" x2="864.00" y2="187.68" stroke="#ffffff" stroke-width="3" stroke-linecap="round" stroke-dasharray="22 18" opacity="0.35" />
<line x1="56.00" y1="333.12" x2="864.00" y2="333.12" stroke="#ffffff" stroke-width="3" stroke-linecap="round" stroke-dasharray="22 18" opacity="0.35" />
<rect x="499.59" y="129.10" width="25.86" height="262.60" fill="#ffffff" stroke="#ffffff" stroke-width="1" opacity="0.78" />
<rect x="529.49" y="129.10" width="25.86" height="262.60" fill="#ffffff" stroke="#ffffff" stroke-width="1" opacity="0.78" />
<rect x="559.38" y="129.10" width="25.86" height="262.60" fill="#ffffff" stroke="#ffffff" stroke-width="1" opacity="0.78" />
<rect x="589.28" y="129.10" width="25.86" height="262.60" fill="#ffffff" stroke="#ffffff" stroke-width="1" opacity="0.78" />
<rect x="619.18" y="129.10" width="25.86" height="262.60" fill="#ffffff" stroke="#ffffff" stroke-width="1" opacity="0.78" />
<rect x="649.07" y="129.10" width="25.86" height="262.60" fill="#ffffff" stroke="#ffffff" stroke-width="1" opacity="0.78" />
<rect x="678.97" y="129.10" width="25.86" height="262.60" fill="#ffffff" stroke="#ffffff" stroke-width="1" opacity="0.78" />
<circle cx="399.40" cy="252.32" r="48.34" fill="#f59e0b" opacity="0.13" />
<circle cx="399.40" cy="252.32" r="48.34" fill="none" stroke="#f59e0b" stroke-width="2" opacity="0.38" />
<g class="track track-vehicle">
<polyline points="742.80,260.40 500.40,260.40 258.00,260.40" fill="none" stroke="#ffffff" stroke-width="9" stroke-linecap="round" stroke-linejoin="round" opacity="0.78" />
<polyline points="742.80,260.40 500.40,260.40 258.00,260.40" fill="none" stroke="#2563eb" stroke-width="4" stroke-linecap="round" stroke-linejoin="round" opacity="0.92" />
<circle cx="742.80" cy="260.40" r="6" fill="#ffffff" stroke="#2563eb" stroke-width="2.5" />
<circle cx="258.00" cy="260.40" r="8" fill="#2563eb" stroke="#ffffff" stroke-width="2.5" />
<rect x="270.00" y="226.40" width="96.00" height="24.00" rx="12" fill="#ffffff" stroke="#d8e2ee" opacity="0.96" />
<rect x="277.00" y="233.40" width="4" height="10" rx="2" fill="#2563eb" />
<text x="287.00" y="242.90" fill="#0f172a" font-size="12" font-family="Inter, Arial, sans-serif" font-weight="750">oncoming_1</text>
</g>
<g class="track track-pedestrian">
<polyline points="419.60,381.60 419.60,333.12 419.60,284.64" fill="none" stroke="#ffffff" stroke-width="9" stroke-linecap="round" stroke-linejoin="round" opacity="0.78" />
<polyline points="419.60,381.60 419.60,333.12 419.60,284.64" fill="none" stroke="#dc2626" stroke-width="4" stroke-linecap="round" stroke-linejoin="round" opacity="0.92" />
<circle cx="419.60" cy="381.60" r="6" fill="#ffffff" stroke="#dc2626" stroke-width="2.5" />
<circle cx="419.60" cy="284.64" r="8" fill="#dc2626" stroke="#ffffff" stroke-width="2.5" />
<rect x="431.60" y="250.64" width="59.00" height="24.00" rx="12" fill="#ffffff" stroke="#d8e2ee" opacity="0.96" />
<rect x="438.60" y="257.64" width="4" height="10" rx="2" fill="#dc2626" />
<text x="448.60" y="267.14" fill="#0f172a" font-size="12" font-family="Inter, Arial, sans-serif" font-weight="750">ped_1</text>
</g>
<g class="track track-vehicle">
<polyline points="177.20,422.00 258.00,300.80 379.20,220.00" fill="none" stroke="#ffffff" stroke-width="11" stroke-linecap="round" stroke-linejoin="round" opacity="0.78" />
<polyline points="177.20,422.00 258.00,300.80 379.20,220.00" fill="none" stroke="#2563eb" stroke-width="6" stroke-linecap="round" stroke-linejoin="round" opacity="1.0" />
<circle cx="177.20" cy="422.00" r="6" fill="#ffffff" stroke="#2563eb" stroke-width="2.5" />
<circle cx="379.20" cy="220.00" r="8" fill="#2563eb" stroke="#ffffff" stroke-width="2.5" />
<rect x="391.20" y="186.00" width="44.20" height="24.00" rx="12" fill="#ffffff" stroke="#d8e2ee" opacity="0.96" />
<rect x="398.20" y="193.00" width="4" height="10" rx="2" fill="#2563eb" />
<text x="408.20" y="202.50" fill="#0f172a" font-size="12" font-family="Inter, Arial, sans-serif" font-weight="750">ego</text>
</g>
<g class="baseline-prediction baseline-constant_velocity prediction-vehicle">
<polyline points="500.40,260.40 258.00,260.40" fill="none" stroke="#ffffff" stroke-width="7" stroke-linecap="round" stroke-linejoin="round" stroke-dasharray="10 9" opacity="0.82" />
<polyline points="500.40,260.40 258.00,260.40" fill="none" stroke="#2563eb" stroke-width="3.2" stroke-linecap="round" stroke-linejoin="round" stroke-dasharray="9 8" opacity="0.88" />
</g>
<g class="baseline-prediction baseline-constant_velocity prediction-pedestrian">
<polyline points="419.60,333.12 419.60,284.64" fill="none" stroke="#ffffff" stroke-width="7" stroke-linecap="round" stroke-linejoin="round" stroke-dasharray="10 9" opacity="0.82" />
<polyline points="419.60,333.12 419.60,284.64" fill="none" stroke="#dc2626" stroke-width="3.2" stroke-linecap="round" stroke-linejoin="round" stroke-dasharray="9 8" opacity="0.88" />
</g>
</g>
<rect x="56" y="585" width="120" height="30" rx="15" fill="#ffffff" stroke="#d8e2ee" />
<circle cx="74" cy="600" r="6" fill="#2563eb" />
<text x="88" y="604" fill="#334155" font-size="12" font-family="Inter, Arial, sans-serif" font-weight="700">Vehicle</text>
<rect x="186" y="585" width="132" height="30" rx="15" fill="#ffffff" stroke="#d8e2ee" />
<circle cx="204" cy="600" r="6" fill="#dc2626" />
<text x="218" y="604" fill="#334155" font-size="12" font-family="Inter, Arial, sans-serif" font-weight="700">Pedestrian</text>
<circle cx="346" cy="600" r="5" fill="#ffffff" stroke="#0f172a" stroke-width="2" />
<circle cx="412" cy="600" r="6" fill="#0f172a" />
<text x="358" y="604" fill="#64748b" font-size="12" font-family="Inter, Arial, sans-serif" font-weight="700">start</text>
<text x="424" y="604" fill="#64748b" font-size="12" font-family="Inter, Arial, sans-serif" font-weight="700">latest</text>
<line x1="474" y1="600" x2="508" y2="600" stroke="#0f172a" stroke-width="3" stroke-linecap="round" stroke-dasharray="8 7" opacity="0.76" />
<text x="518" y="604" fill="#64748b" font-size="12" font-family="Inter, Arial, sans-serif" font-weight="700">baseline forecast</text>
</svg>
