<svg xmlns="http://www.w3.org/2000/svg" width="920" height="640" viewBox="0 0 920 640" role="img">
<title>waymo_native_sample_interaction trajectory preview</title>
<desc>Scenario waymo_native_sample_interaction from waymo_motion_json:waymo_motion_native_sample.json. Score 31.542. Tags: vulnerable_road_user, objects_of_interest, tracks_to_predict.</desc>
<defs>
<clipPath id="scenario-plot-clip"><rect x="56" y="84" width="808" height="474" rx="10" /></clipPath>
</defs>
<rect x="0" y="0" width="920" height="640" fill="#f8fafc" />
<text x="56" y="36" fill="#0f172a" font-size="22" font-family="Inter, Arial, sans-serif" font-weight="800">Waymo Native Sample Interaction</text>
<text x="56" y="60" fill="#64748b" font-size="13" font-family="Inter, Arial, sans-serif" font-weight="650">score 31.54 / 3 agents / Vulnerable Road User / Objects Of Interest / Tracks To Predict</text>
<text x="864" y="38" fill="#64748b" font-size="12" font-family="Inter, Arial, sans-serif" text-anchor="end">waymo_motion_json:waymo_motion_...</text>
<rect x="56" y="84" width="808" height="474" rx="10" fill="#f9fbfd" stroke="#d8e2ee" stroke-width="1.2" />
<g clip-path="url(#scenario-plot-clip)">
<line x1="120" y1="84" x2="120" y2="558" stroke="#d7e1ee" stroke-width="1" opacity="0.52" />
<line x1="184" y1="84" x2="184" y2="558" stroke="#d7e1ee" stroke-width="1" opacity="0.52" />
<line x1="248" y1="84" x2="248" y2="558" stroke="#d7e1ee" stroke-width="1" opacity="0.52" />
<line x1="312" y1="84" x2="312" y2="558" stroke="#d7e1ee" stroke-width="1" opacity="0.52" />
<line x1="376" y1="84" x2="376" y2="558" stroke="#d7e1ee" stroke-width="1" opacity="0.52" />
<line x1="440" y1="84" x2="440" y2="558" stroke="#d7e1ee" stroke-width="1" opacity="0.52" />
<line x1="504" y1="84" x2="504" y2="558" stroke="#d7e1ee" stroke-width="1" opacity="0.52" />
<line x1="568" y1="84" x2="568" y2="558" stroke="#d7e1ee" stroke-width="1" opacity="0.52" />
<line x1="632" y1="84" x2="632" y2="558" stroke="#d7e1ee" stroke-width="1" opacity="0.52" />
<line x1="696" y1="84" x2="696" y2="558" stroke="#d7e1ee" stroke-width="1" opacity="0.52" />
<line x1="760" y1="84" x2="760" y2="558" stroke="#d7e1ee" stroke-width="1" opacity="0.52" />
<line x1="824" y1="84" x2="824" y2="558" stroke="#d7e1ee" stroke-width="1" opacity="0.52" />
<line x1="56" y1="148" x2="864" y2="148" stroke="#d7e1ee" stroke-width="1" opacity="0.52" />
<line x1="56" y1="212" x2="864" y2="212" stroke="#d7e1ee" stroke-width="1" opacity="0.52" />
<line x1="56" y1="276" x2="864" y2="276" stroke="#d7e1ee" stroke-width="1" opacity="0.52" />
<line x1="56" y1="340" x2="864" y2="340" stroke="#d7e1ee" stroke-width="1" opacity="0.52" />
<line x1="56" y1="404" x2="864" y2="404" stroke="#d7e1ee" stroke-width="1" opacity="0.52" />
<line x1="56" y1="468" x2="864" y2="468" stroke="#d7e1ee" stroke-width="1" opacity="0.52" />
<line x1="56" y1="532" x2="864" y2="532" stroke="#d7e1ee" stroke-width="1" opacity="0.52" />
<rect x="176.63" y="156.13" width="566.74" height="370.96" fill="#e4eaf2" stroke="#c7d3e1" stroke-width="1" opacity="0.92" />
<rect x="197.24" y="84.00" width="370.96" height="474.00" fill="#e4eaf2" stroke="#c7d3e1" stroke-width="1" opacity="0.92" />
<line x1="176.63" y1="341.61" x2="743.37" y2="341.61" stroke="#ffffff" stroke-width="3" stroke-linecap="round" stroke-dasharray="22 18" opacity="0.88" />
<line x1="382.72" y1="84.00" x2="382.72" y2="558.00" stroke="#ffffff" stroke-width="3" stroke-linecap="round" stroke-dasharray="22 18" opacity="0.88" />
<line x1="176.63" y1="156.13" x2="743.37" y2="156.13" stroke="#c7d3e1" stroke-width="1.5" opacity="0.72" />
<line x1="176.63" y1="527.09" x2="743.37" y2="527.09" stroke="#c7d3e1" stroke-width="1.5" opacity="0.72" />
<line x1="197.24" y1="84.00" x2="197.24" y2="558.00" stroke="#c7d3e1" stroke-width="1.5" opacity="0.72" />
<line x1="568.20" y1="84.00" x2="568.20" y2="558.00" stroke="#c7d3e1" stroke-width="1.5" opacity="0.72" />
<line x1="176.63" y1="248.87" x2="743.37" y2="248.87" stroke="#ffffff" stroke-width="3" stroke-linecap="round" stroke-dasharray="22 18" opacity="0.35" />
<line x1="176.63" y1="434.35" x2="743.37" y2="434.35" stroke="#ffffff" stroke-width="3" stroke-linecap="round" stroke-dasharray="22 18" opacity="0.35" />
<rect x="587.77" y="174.16" width="32.97" height="334.89" fill="#ffffff" stroke="#ffffff" stroke-width="1" opacity="0.78" />
<rect x="625.90" y="174.16" width="32.97" height="334.89" fill="#ffffff" stroke="#ffffff" stroke-width="1" opacity="0.78" />
<rect x="664.03" y="174.16" width="32.97" height="334.89" fill="#ffffff" stroke="#ffffff" stroke-width="1" opacity="0.78" />
<rect x="702.15" y="174.16" width="32.97" height="334.89" fill="#ffffff" stroke="#ffffff" stroke-width="1" opacity="0.78" />
<rect x="740.28" y="174.16" width="32.97" height="334.89" fill="#ffffff" stroke="#ffffff" stroke-width="1" opacity="0.78" />
<rect x="778.40" y="174.16" width="32.97" height="334.89" fill="#ffffff" stroke="#ffffff" stroke-width="1" opacity="0.78" />
<rect x="816.53" y="174.16" width="32.97" height="334.89" fill="#ffffff" stroke="#ffffff" stroke-width="1" opacity="0.78" />
<circle cx="398.17" cy="363.25" r="50.00" fill="#f59e0b" opacity="0.13" />
<circle cx="398.17" cy="363.25" r="50.00" fill="none" stroke="#f59e0b" stroke-width="2" opacity="0.38" />
<g class="track track-vehicle">
<polyline points="331.20,341.61 356.96,341.61 382.72,341.61 403.33,341.61" fill="none" stroke="#ffffff" stroke-width="11" stroke-linecap="round" stroke-linejoin="round" opacity="0.78" />
<polyline points="331.20,341.61 356.96,341.61 382.72,341.61 403.33,341.61" fill="none" stroke="#2563eb" stroke-width="6" stroke-linecap="round" stroke-linejoin="round" opacity="1.0" />
<circle cx="331.20" cy="341.61" r="6" fill="#ffffff" stroke="#2563eb" stroke-width="2.5" />
<circle cx="403.33" cy="341.61" r="8" fill="#2563eb" stroke="#ffffff" stroke-width="2.5" />
<rect x="415.33" y="307.61" width="44.20" height="24.00" rx="12" fill="#ffffff" stroke="#d8e2ee" opacity="0.96" />
<rect x="422.33" y="314.61" width="4" height="10" rx="2" fill="#2563eb" />
<text x="432.33" y="324.11" fill="#0f172a" font-size="12" font-family="Inter, Arial, sans-serif" font-weight="750">ego</text>
</g>
<g class="track track-pedestrian">
<polyline points="393.02,403.43 393.02,397.25 393.02,391.07 393.02,384.89" fill="none" stroke="#ffffff" stroke-width="9" stroke-linecap="round" stroke-linejoin="round" opacity="0.78" />
<polyline points="393.02,403.43 393.02,397.25 393.02,391.07 393.02,384.89" fill="none" stroke="#dc2626" stroke-width="4" stroke-linecap="round" stroke-linejoin="round" opacity="0.92" />
<circle cx="393.02" cy="403.43" r="6" fill="#ffffff" stroke="#dc2626" stroke-width="2.5" />
<circle cx="393.02" cy="384.89" r="8" fill="#dc2626" stroke="#ffffff" stroke-width="2.5" />
<rect x="405.02" y="350.89" width="42.00" height="24.00" rx="12" fill="#ffffff" stroke="#d8e2ee" opacity="0.96" />
<rect x="412.02" y="357.89" width="4" height="10" rx="2" fill="#dc2626" />
<text x="422.02" y="367.39" fill="#0f172a" font-size="12" font-family="Inter, Arial, sans-serif" font-weight="750">7</text>
</g>
<g class="track track-vehicle">
<polyline points="588.80,238.57 578.50,241.14 568.20,243.72 557.89,246.29" fill="none" stroke="#ffffff" stroke-width="9" stroke-linecap="round" stroke-linejoin="round" opacity="0.78" />
<polyline points="588.80,238.57 578.50,241.14 568.20,243.72 557.89,246.29" fill="none" stroke="#2563eb" stroke-width="4" stroke-linecap="round" stroke-linejoin="round" opacity="0.92" />
<circle cx="588.80" cy="238.57" r="6" fill="#ffffff" stroke="#2563eb" stroke-width="2.5" />
<circle cx="557.89" cy="246.29" r="8" fill="#2563eb" stroke="#ffffff" stroke-width="2.5" />
<rect x="569.89" y="212.29" width="42.00" height="24.00" rx="12" fill="#ffffff" stroke="#d8e2ee" opacity="0.96" />
<rect x="576.89" y="219.29" width="4" height="10" rx="2" fill="#2563eb" />
<text x="586.89" y="228.79" fill="#0f172a" font-size="12" font-family="Inter, Arial, sans-serif" font-weight="750">99</text>
</g>
</g>
<rect x="56" y="585" width="120" height="30" rx="15" fill="#ffffff" stroke="#d8e2ee" />
<circle cx="74" cy="600" r="6" fill="#2563eb" />
<text x="88" y="604" fill="#334155" font-size="12" font-family="Inter, Arial, sans-serif" font-weight="700">Vehicle</text>
<rect x="186" y="585" width="132" height="30" rx="15" fill="#ffffff" stroke="#d8e2ee" />
<circle cx="204" cy="600" r="6" fill="#dc2626" />
<text x="218" y="604" fill="#334155" font-size="12" font-family="Inter, Arial, sans-serif" font-weight="700">Pedestrian</text>
<circle cx="346" cy="600" r="5" fill="#ffffff" stroke="#0f172a" stroke-width="2" />
<circle cx="412" cy="600" r="6" fill="#0f172a" />
<text x="358" y="604" fill="#64748b" font-size="12" font-family="Inter, Arial, sans-serif" font-weight="700">start</text>
<text x="424" y="604" fill="#64748b" font-size="12" font-family="Inter, Arial, sans-serif" font-weight="700">latest</text>
</svg>
