<svg xmlns="http://www.w3.org/2000/svg" width="920" height="640" viewBox="0 0 920 640" role="img">
<title>waymo_native_sample_interaction trajectory preview</title>
<desc>Scenario waymo_native_sample_interaction from waymo_motion_json:waymo_motion_native_sample.json. Score 31.355. 3 agents. Tags: vulnerable_road_user, map_context, objects_of_interest, tracks_to_predict.</desc>
<defs>
<clipPath id="scenario-plot-clip"><rect x="56" y="84" width="808" height="474" rx="10" /></clipPath>
</defs>
<rect x="0" y="0" width="920" height="640" fill="#f8fafc" />
<text x="56" y="36" fill="#0f172a" font-size="22" font-family="Inter, Arial, sans-serif" font-weight="800">Waymo Native Sample Interaction</text>
<text x="56" y="60" fill="#64748b" font-size="13" font-family="Inter, Arial, sans-serif" font-weight="650">score 31.36 / 3 agents / Vulnerable Road User / Map Context / Objects Of Interest / +1 tags</text>
<text x="864" y="38" fill="#64748b" font-size="12" font-family="Inter, Arial, sans-serif" text-anchor="end">waymo_motion_json:waymo_motion_...</text>
<rect x="56" y="84" width="808" height="474" rx="10" fill="#f9fbfd" stroke="#d8e2ee" stroke-width="1.2" />
<g clip-path="url(#scenario-plot-clip)">
<line x1="120" y1="84" x2="120" y2="558" stroke="#d7e1ee" stroke-width="1" opacity="0.52" />
<line x1="184" y1="84" x2="184" y2="558" stroke="#d7e1ee" stroke-width="1" opacity="0.52" />
<line x1="248" y1="84" x2="248" y2="558" stroke="#d7e1ee" stroke-width="1" opacity="0.52" />
<line x1="312" y1="84" x2="312" y2="558" stroke="#d7e1ee" stroke-width="1" opacity="0.52" />
<line x1="376" y1="84" x2="376" y2="558" stroke="#d7e1ee" stroke-width="1" opacity="0.52" />
<line x1="440" y1="84" x2="440" y2="558" stroke="#d7e1ee" stroke-width="1" opacity="0.52" />
<line x1="504" y1="84" x2="504" y2="558" stroke="#d7e1ee" stroke-width="1" opacity="0.52" />
<line x1="568" y1="84" x2="568" y2="558" stroke="#d7e1ee" stroke-width="1" opacity="0.52" />
<line x1="632" y1="84" x2="632" y2="558" stroke="#d7e1ee" stroke-width="1" opacity="0.52" />
<line x1="696" y1="84" x2="696" y2="558" stroke="#d7e1ee" stroke-width="1" opacity="0.52" />
<line x1="760" y1="84" x2="760" y2="558" stroke="#d7e1ee" stroke-width="1" opacity="0.52" />
<line x1="824" y1="84" x2="824" y2="558" stroke="#d7e1ee" stroke-width="1" opacity="0.52" />
<line x1="56" y1="148" x2="864" y2="148" stroke="#d7e1ee" stroke-width="1" opacity="0.52" />
<line x1="56" y1="212" x2="864" y2="212" stroke="#d7e1ee" stroke-width="1" opacity="0.52" />
<line x1="56" y1="276" x2="864" y2="276" stroke="#d7e1ee" stroke-width="1" opacity="0.52" />
<line x1="56" y1="340" x2="864" y2="340" stroke="#d7e1ee" stroke-width="1" opacity="0.52" />
<line x1="56" y1="404" x2="864" y2="404" stroke="#d7e1ee" stroke-width="1" opacity="0.52" />
<line x1="56" y1="468" x2="864" y2="468" stroke="#d7e1ee" stroke-width="1" opacity="0.52" />
<line x1="56" y1="532" x2="864" y2="532" stroke="#d7e1ee" stroke-width="1" opacity="0.52" />
<polygon class="map-feature map-crosswalk" points="422.08,406.32 460.00,406.32 460.00,235.68 422.08,235.68" fill="#ffffff" stroke="#bae6fd" stroke-width="1.2" opacity="0.78" />
<polyline class="map-feature map-lane" points="294.10,321.00 388.90,321.00 483.70,321.00 578.50,321.00" fill="none" stroke="#94a3b8" stroke-width="1.4" stroke-linecap="round" stroke-linejoin="round" stroke-dasharray="10 10" opacity="0.64" />
<polyline class="map-feature map-road_line" points="294.10,235.68 578.50,235.68" fill="none" stroke="#ffffff" stroke-width="2.2" stroke-linecap="round" stroke-linejoin="round" stroke-dasharray="18 14" opacity="0.82" />
<polyline class="map-feature map-road_edge" points="294.10,415.80 578.50,415.80" fill="none" stroke="#64748b" stroke-width="2.2" stroke-linecap="round" stroke-linejoin="round" opacity="0.74" />
<circle cx="450.52" cy="340.91" r="50.00" fill="#f59e0b" opacity="0.13" />
<circle cx="450.52" cy="340.91" r="50.00" fill="none" stroke="#f59e0b" stroke-width="2" opacity="0.38" />
<g class="track track-vehicle">
<polyline points="388.90,321.00 412.60,321.00 436.30,321.00 455.26,321.00" fill="none" stroke="#ffffff" stroke-width="11" stroke-linecap="round" stroke-linejoin="round" opacity="0.78" />
<polyline points="388.90,321.00 412.60,321.00 436.30,321.00 455.26,321.00" fill="none" stroke="#2563eb" stroke-width="6" stroke-linecap="round" stroke-linejoin="round" opacity="1.0" />
<circle cx="388.90" cy="321.00" r="6" fill="#ffffff" stroke="#2563eb" stroke-width="2.5" />
<circle cx="455.26" cy="321.00" r="8" fill="#2563eb" stroke="#ffffff" stroke-width="2.5" />
<rect x="467.26" y="287.00" width="44.20" height="24.00" rx="12" fill="#ffffff" stroke="#d8e2ee" opacity="0.96" />
<rect x="474.26" y="294.00" width="4" height="10" rx="2" fill="#2563eb" />
<text x="484.26" y="303.50" fill="#0f172a" font-size="12" font-family="Inter, Arial, sans-serif" font-weight="750">ego</text>
</g>
<g class="track track-pedestrian">
<polyline points="445.78,377.88 445.78,372.19 445.78,366.50 445.78,360.82" fill="none" stroke="#ffffff" stroke-width="9" stroke-linecap="round" stroke-linejoin="round" opacity="0.78" />
<polyline points="445.78,377.88 445.78,372.19 445.78,366.50 445.78,360.82" fill="none" stroke="#dc2626" stroke-width="4" stroke-linecap="round" stroke-linejoin="round" opacity="0.92" />
<circle cx="445.78" cy="377.88" r="6" fill="#ffffff" stroke="#dc2626" stroke-width="2.5" />
<circle cx="445.78" cy="360.82" r="8" fill="#dc2626" stroke="#ffffff" stroke-width="2.5" />
<rect x="457.78" y="326.82" width="42.00" height="24.00" rx="12" fill="#ffffff" stroke="#d8e2ee" opacity="0.96" />
<rect x="464.78" y="333.82" width="4" height="10" rx="2" fill="#dc2626" />
<text x="474.78" y="343.32" fill="#0f172a" font-size="12" font-family="Inter, Arial, sans-serif" font-weight="750">7</text>
</g>
<g class="track track-vehicle">
<polyline points="625.90,226.20 616.42,228.57 606.94,230.94 597.46,233.31" fill="none" stroke="#ffffff" stroke-width="9" stroke-linecap="round" stroke-linejoin="round" opacity="0.78" />
<polyline points="625.90,226.20 616.42,228.57 606.94,230.94 597.46,233.31" fill="none" stroke="#2563eb" stroke-width="4" stroke-linecap="round" stroke-linejoin="round" opacity="0.92" />
<circle cx="625.90" cy="226.20" r="6" fill="#ffffff" stroke="#2563eb" stroke-width="2.5" />
<circle cx="597.46" cy="233.31" r="8" fill="#2563eb" stroke="#ffffff" stroke-width="2.5" />
<rect x="609.46" y="199.31" width="42.00" height="24.00" rx="12" fill="#ffffff" stroke="#d8e2ee" opacity="0.96" />
<rect x="616.46" y="206.31" width="4" height="10" rx="2" fill="#2563eb" />
<text x="626.46" y="215.81" fill="#0f172a" font-size="12" font-family="Inter, Arial, sans-serif" font-weight="750">99</text>
</g>
<g class="baseline-prediction baseline-constant_velocity prediction-pedestrian">
<polyline points="445.78,372.19 445.78,366.50 445.78,360.82" fill="none" stroke="#ffffff" stroke-width="7" stroke-linecap="round" stroke-linejoin="round" stroke-dasharray="10 9" opacity="0.82" />
<polyline points="445.78,372.19 445.78,366.50 445.78,360.82" fill="none" stroke="#dc2626" stroke-width="3.2" stroke-linecap="round" stroke-linejoin="round" stroke-dasharray="9 8" opacity="0.88" />
</g>
</g>
<rect x="56" y="585" width="120" height="30" rx="15" fill="#ffffff" stroke="#d8e2ee" />
<circle cx="74" cy="600" r="6" fill="#2563eb" />
<text x="88" y="604" fill="#334155" font-size="12" font-family="Inter, Arial, sans-serif" font-weight="700">Vehicle</text>
<rect x="186" y="585" width="132" height="30" rx="15" fill="#ffffff" stroke="#d8e2ee" />
<circle cx="204" cy="600" r="6" fill="#dc2626" />
<text x="218" y="604" fill="#334155" font-size="12" font-family="Inter, Arial, sans-serif" font-weight="700">Pedestrian</text>
<circle cx="346" cy="600" r="5" fill="#ffffff" stroke="#0f172a" stroke-width="2" />
<circle cx="412" cy="600" r="6" fill="#0f172a" />
<text x="358" y="604" fill="#64748b" font-size="12" font-family="Inter, Arial, sans-serif" font-weight="700">start</text>
<text x="424" y="604" fill="#64748b" font-size="12" font-family="Inter, Arial, sans-serif" font-weight="700">latest</text>
<line x1="474" y1="600" x2="508" y2="600" stroke="#0f172a" stroke-width="3" stroke-linecap="round" stroke-dasharray="8 7" opacity="0.76" />
<text x="518" y="604" fill="#64748b" font-size="12" font-family="Inter, Arial, sans-serif" font-weight="700">baseline forecast</text>
</svg>
